<svg width="24" height="34" viewBox="0 0 24 34" fill="none" xmlns="http://www.w3.org/2000/svg">
<path fill-rule="evenodd" clip-rule="evenodd" d="M21.4626 15.2296H21.8598C22.6943 15.2519 23.4289 15.9996 23.696 17.0984C23.9632 18.1973 23.7053 19.411 23.0516 20.132V23.4444C23.0444 26.5118 21.6518 29.2424 19.5717 30.268L20.533 32.2886C20.7724 32.7952 20.6731 33.4753 20.3106 33.8123C20.1826 33.9368 20.0298 34.0025 19.8736 34C19.6078 33.9981 19.3603 33.8116 19.2142 33.5031L17.8556 30.6876H6.00184L4.64326 33.5031C4.49709 33.8116 4.24961 33.9981 3.98384 34C3.82764 34.0025 3.67481 33.9368 3.54687 33.8123C3.18436 33.4753 3.08507 32.7952 3.32441 32.2886L4.28574 30.3232C2.2056 29.2976 0.81304 26.567 0.805884 23.4996V20.1872C0.118363 19.4786 -0.163286 18.2359 0.107928 17.1077C0.379142 15.9794 1.1417 15.2216 1.99762 15.2296H19.8736V4.29859C19.8693 3.63031 19.4805 3.09003 18.9997 3.08404H17.0134C16.8379 3.08404 16.6956 3.28177 16.6956 3.52569V4.34276C18.0951 4.8449 19.0744 6.59614 19.0791 8.60474V9.70889C19.0791 10.3187 18.7234 10.813 18.2846 10.813H13.5177C13.0789 10.813 12.7232 10.3187 12.7232 9.70889V8.60474C12.7279 6.59614 13.7073 4.8449 15.1067 4.34276V3.52569C15.1045 2.82199 15.3048 2.14625 15.6628 1.64865C16.0209 1.15105 16.5071 0.872805 17.0134 0.875756H18.9997C20.3599 0.875756 21.4626 2.40821 21.4626 4.29859V15.2296ZM15.9011 6.39648C15.0235 6.39648 14.3121 7.38516 14.3121 8.60476H17.4901C17.4901 7.38516 16.7787 6.39648 15.9011 6.39648ZM1.99751 17.4379H21.8597C22.0791 17.4379 22.257 17.685 22.257 17.9899C22.257 18.2948 22.0791 18.542 21.8597 18.542H1.99751C1.77812 18.542 1.60027 18.2948 1.60027 17.9899C1.60027 17.685 1.77812 17.4379 1.99751 17.4379ZM17.8396 28.4792C19.8386 28.4732 21.4581 26.2225 21.4625 23.4443V20.7502H2.39475V23.4443C2.39911 26.2225 4.01857 28.4732 6.01761 28.4792H17.8396Z" fill="#1EA0D4"/>
</svg>
