<svg width="24" height="34" viewBox="0 0 24 34" fill="none" xmlns="http://www.w3.org/2000/svg">
<path fill-rule="evenodd" clip-rule="evenodd" d="M22.1914 16.2548H23.0412C23.5106 16.2548 23.891 16.7845 23.891 17.4378V28.0849C23.891 28.7382 23.5106 29.2679 23.0412 29.2679H22.1914V32.8169C22.1914 33.4702 21.811 33.9999 21.3416 33.9999H17.9424C17.4731 33.9999 17.0926 33.4702 17.0926 32.8169V29.2679H6.89506V32.8169C6.89506 33.4702 6.5146 33.9999 6.04527 33.9999H2.64607C2.17674 33.9999 1.79628 33.4702 1.79628 32.8169V29.2679H0.946478C0.477147 29.2679 0.0966797 28.7382 0.0966797 28.0849V17.4378C0.0966797 16.7845 0.477147 16.2548 0.946478 16.2548H1.79628V4.35377C1.79628 2.4329 2.91485 0.875732 4.29468 0.875732H19.693C21.0728 0.875732 22.1914 2.4329 22.1914 4.35377V16.2548ZM4.29468 3.24172C3.85351 3.24172 3.49587 3.73959 3.49587 4.35375V16.2548H4.77057V11.3808C4.77057 10.7274 5.15103 10.1978 5.62036 10.1978H18.3673C18.8367 10.1978 19.2171 10.7274 19.2171 11.3808V16.2548H20.4918V4.35375C20.4918 3.73959 20.1342 3.24172 19.693 3.24172H4.29468ZM6.4702 16.2549V12.5639H11.1441V16.2549H6.4702ZM17.5176 12.5639H12.8437V16.2549H17.5176V12.5639ZM2.64607 18.6207H22.1914V20.549H1.79627V18.6207H2.64607ZM3.49587 31.6338H5.19546V29.2678H3.49587V31.6338ZM20.4919 31.6338H18.7923V29.2678H20.4919V31.6338ZM1.79627 22.9152V26.9019H22.1914V22.9152H1.79627Z" fill="#1EA0D4"/>
</svg>
