<svg width="29" height="28" viewBox="0 0 29 28" fill="none" xmlns="http://www.w3.org/2000/svg">
<path fill-rule="evenodd" clip-rule="evenodd" d="M14.6086 2.82668C16.0109 1.26856 17.8855 0.35522 19.8588 0.258547L20.208 0.25C22.3083 0.25 24.3226 1.1769 25.807 2.82624C27.2925 4.47524 28.1271 6.71224 28.1271 9.04484C28.1271 11.3774 27.2925 13.6144 25.8072 15.2632L15.0402 27.2208C14.5645 27.7491 13.7934 27.7491 13.3177 27.2208L2.55071 15.2632C-0.541644 11.8289 -0.541644 6.26078 2.55071 2.82646C5.64307 -0.607855 10.6568 -0.607855 13.7491 2.82646L14.1786 3.30298L14.6086 2.82668ZM24.0845 4.73918C23.0565 3.59702 21.6621 2.95532 20.208 2.95532C18.7539 2.95532 17.3594 3.59702 16.3313 4.73941L15.0402 6.17324C14.5645 6.70149 13.7934 6.70149 13.3177 6.17324L12.0266 4.73941C9.8856 2.36159 6.41427 2.36159 4.27322 4.73941C2.13217 7.11722 2.13217 10.9724 4.27322 13.3502L14.1786 24.3505L24.0849 13.35C25.0448 12.2845 25.6121 10.8644 25.6835 9.36681L25.6911 9.04482C25.6911 7.42994 25.1133 5.88125 24.0845 4.73918Z" fill="#C2C2C2"/>
</svg>
