<svg width="26" height="32" viewBox="0 0 26 32" fill="none" xmlns="http://www.w3.org/2000/svg">
<path d="M24.9526 16.25C24.9526 24.1201 19.592 30.5 12.9793 30.5C6.36653 30.5 1.00586 24.1201 1.00586 16.25C1.00586 8.37994 6.36653 2 12.9793 2C19.592 2 24.9526 8.37994 24.9526 16.25Z" fill="#FFBB0D"/>
<path fill-rule="evenodd" clip-rule="evenodd" d="M25.8398 16.25C25.8398 24.703 20.082 31.5556 12.9795 31.5556C5.8769 31.5556 0.119141 24.703 0.119141 16.25C0.119141 7.79699 5.8769 0.944458 12.9795 0.944458C20.082 0.944458 25.8398 7.79699 25.8398 16.25ZM12.9795 30.5C19.5922 30.5 24.9528 24.1201 24.9528 16.25C24.9528 8.37996 19.5922 2.00001 12.9795 2.00001C6.36673 2.00001 1.00606 8.37996 1.00606 16.25C1.00606 24.1201 6.36673 30.5 12.9795 30.5Z" fill="#E89B05"/>
<path fill-rule="evenodd" clip-rule="evenodd" d="M1.89292 16.7777C1.648 16.7777 1.44946 16.5414 1.44946 16.2499C1.44946 8.67136 6.61159 2.52771 12.9794 2.52771C13.2243 2.52771 13.4229 2.764 13.4229 3.05549C13.4229 3.34697 13.2243 3.58327 12.9794 3.58327C7.10142 3.58326 2.33638 9.25432 2.33638 16.2499C2.33638 16.5414 2.13783 16.7777 1.89292 16.7777Z" fill="#E8AA0A"/>
<path fill-rule="evenodd" clip-rule="evenodd" d="M24.0656 15.7222C24.3105 15.7222 24.509 15.9585 24.509 16.2499C24.509 23.8285 19.3469 29.9722 12.9791 29.9722C12.7342 29.9722 12.5356 29.7359 12.5356 29.4444C12.5356 29.1529 12.7342 28.9166 12.9791 28.9166C18.8571 28.9166 23.6221 23.2456 23.6221 16.2499C23.6221 15.9585 23.8207 15.7222 24.0656 15.7222Z" fill="#E8AA0A"/>
<path d="M21.8487 16.25C21.8487 22.0797 17.8778 26.8056 12.9795 26.8056C8.08122 26.8056 4.11035 22.0797 4.11035 16.25C4.11035 10.4203 8.08122 5.69446 12.9795 5.69446C17.8778 5.69446 21.8487 10.4203 21.8487 16.25Z" fill="#FFDD28"/>
<path fill-rule="evenodd" clip-rule="evenodd" d="M22.7358 16.2499C22.7358 22.6625 18.3679 27.861 12.9797 27.861C7.59159 27.861 3.22363 22.6625 3.22363 16.2499C3.22363 9.83727 7.59159 4.63879 12.9797 4.63879C18.3679 4.63879 22.7358 9.83727 22.7358 16.2499ZM12.9797 26.8055C17.878 26.8055 21.8489 22.0796 21.8489 16.2499C21.8489 10.4202 17.878 5.69435 12.9797 5.69435C8.08142 5.69435 4.11055 10.4202 4.11055 16.2499C4.11055 22.0796 8.08142 26.8055 12.9797 26.8055Z" fill="#E89B05"/>
<path fill-rule="evenodd" clip-rule="evenodd" d="M12.9796 25.2223C17.1431 25.2223 20.5184 21.2053 20.5184 16.2501C20.5184 15.9586 20.7169 15.7223 20.9618 15.7223C21.2067 15.7223 21.4053 15.9586 21.4053 16.2501C21.4053 21.7882 17.6329 26.2778 12.9796 26.2778C12.7346 26.2778 12.5361 26.0415 12.5361 25.7501C12.5361 25.4586 12.7346 25.2223 12.9796 25.2223Z" fill="#ECC704"/>
<path fill-rule="evenodd" clip-rule="evenodd" d="M12.9794 7.27785C8.81587 7.27785 5.44063 11.2948 5.44063 16.2501C5.44063 16.5416 5.24209 16.7778 4.99717 16.7778C4.75225 16.7778 4.55371 16.5416 4.55371 16.2501C4.55371 10.7119 8.32603 6.22229 12.9794 6.22229C13.2243 6.22229 13.4229 6.45858 13.4229 6.75007C13.4229 7.04155 13.2243 7.27785 12.9794 7.27785Z" fill="#FFEF9C"/>
<path d="M8.55859 15.0064L11.3216 14.3367L12.1504 12.6627L12.9793 10.9886L14.6371 14.3367L17.4001 15.0064L15.1897 17.6848L15.7423 21.0329L12.9793 19.3589L10.2164 21.0329L10.769 17.6848L8.55859 15.0064Z" fill="#FFEF9C"/>
<path fill-rule="evenodd" clip-rule="evenodd" d="M11.3216 14.3368L12.9794 10.9887L14.6372 14.3368L17.4001 15.0064L15.1898 17.6849L15.7424 21.033L12.9794 19.3589L10.2164 21.033L10.769 17.6849L8.55867 15.0064L11.3216 14.3368ZM9.89866 17.9954L7.98522 15.6767C7.77878 15.4265 7.70388 15.062 7.79004 14.7267C7.87619 14.3914 8.10959 14.139 8.39829 14.0691L10.8107 13.4844L12.2869 10.503C12.4314 10.2112 12.6948 10.0321 12.9794 10.0321C13.264 10.0321 13.5274 10.2112 13.6719 10.503L15.1481 13.4844L17.5605 14.0691C17.8492 14.139 18.0826 14.3914 18.1688 14.7267C18.2549 15.062 18.18 15.4265 17.9736 15.6767L16.0601 17.9954L16.5311 20.8486C16.5903 21.2077 16.4722 21.5757 16.2268 21.7963C15.9814 22.0169 15.6518 22.0515 15.3777 21.8855L12.9794 20.4324L10.5811 21.8855C10.307 22.0515 9.97738 22.0169 9.73198 21.7963C9.48658 21.5757 9.36847 21.2077 9.42775 20.8486L9.89866 17.9954Z" fill="#E89B05"/>
</svg>
