<svg width="20" height="19" viewBox="0 0 20 19" fill="none" xmlns="http://www.w3.org/2000/svg">
<path d="M9.90937 1.68693C12.4095 1.68693 12.703 1.69807 13.6912 1.74266C14.6051 1.78353 15.0992 1.93588 15.4298 2.06593C15.8682 2.23685 16.1802 2.4375 16.5071 2.76448C16.8341 3.09146 17.0384 3.40358 17.2056 3.84203C17.3319 4.17273 17.4879 4.66691 17.5288 5.58098C17.5733 6.56935 17.5845 6.86289 17.5845 9.36355C17.5845 11.8642 17.5733 12.1578 17.5288 13.1461C17.4879 14.0602 17.3356 14.5544 17.2056 14.8851C17.0347 15.3235 16.8341 15.6356 16.5071 15.9626C16.1802 16.2896 15.8682 16.494 15.4298 16.6612C15.0992 16.7875 14.6051 16.9436 13.6912 16.9844C12.703 17.029 12.4095 17.0402 9.90937 17.0402C7.4092 17.0402 7.11572 17.029 6.12754 16.9844C5.21367 16.9436 4.71958 16.7912 4.38894 16.6612C3.95058 16.4903 3.63852 16.2896 3.31161 15.9626C2.98469 15.6356 2.78037 15.3235 2.61319 14.8851C2.48689 14.5544 2.33086 14.0602 2.28999 13.1461C2.24541 12.1578 2.23427 11.8642 2.23427 9.36355C2.23427 6.86289 2.24541 6.56935 2.28999 5.58098C2.33086 4.66691 2.48317 4.17273 2.61319 3.84203C2.78408 3.40358 2.98469 3.09146 3.31161 2.76448C3.63852 2.4375 3.95058 2.23313 4.38894 2.06593C4.71958 1.93959 5.21367 1.78353 6.12754 1.74266C7.11572 1.69436 7.41292 1.68693 9.90937 1.68693ZM9.90937 0C7.36834 0 7.04885 0.0111471 6.04953 0.0557354C5.05392 0.100324 4.37408 0.260099 3.77969 0.490472C3.16301 0.728276 2.64291 1.05154 2.12282 1.57174C1.60272 2.09194 1.28324 2.61585 1.04177 3.22894C0.811439 3.82345 0.651695 4.50342 0.607116 5.50295C0.562536 6.49875 0.551392 6.8183 0.551392 9.35984C0.551392 11.9014 0.562536 12.2209 0.607116 13.2204C0.651695 14.2163 0.811439 14.8962 1.04177 15.4945C1.27952 16.1113 1.60272 16.6315 2.12282 17.1517C2.64291 17.6719 3.16672 17.9914 3.77969 18.2329C4.37408 18.4633 5.05392 18.6231 6.05325 18.6677C7.05257 18.7122 7.36834 18.7234 9.91309 18.7234C12.4578 18.7234 12.7736 18.7122 13.7729 18.6677C14.7685 18.6231 15.4484 18.4633 16.0465 18.2329C16.6632 17.9951 17.1833 17.6719 17.7034 17.1517C18.2234 16.6315 18.5429 16.1075 18.7844 15.4945C19.0147 14.8999 19.1745 14.22 19.2191 13.2204C19.2636 12.2209 19.2748 11.9051 19.2748 9.35984C19.2748 6.81459 19.2636 6.49875 19.2191 5.49923C19.1745 4.50342 19.0147 3.82345 18.7844 3.22522C18.5466 2.60842 18.2234 2.08822 17.7034 1.56802C17.1833 1.04783 16.6595 0.728276 16.0465 0.486756C15.4521 0.256383 14.7723 0.0966081 13.7729 0.0520197C12.7699 0.0111471 12.4504 0 9.90937 0Z" fill="white"/>
<path d="M9.9131 4.40552C7.17839 4.40552 4.95691 6.62316 4.95691 9.36171C4.95691 12.1003 7.17456 14.3179 9.9131 14.3179C12.6516 14.3179 14.8693 12.1003 14.8693 9.36171C14.8693 6.62316 12.6516 4.40552 9.9131 4.40552ZM9.9131 12.5752C8.13592 12.5752 6.69579 11.1351 6.69579 9.35788C6.69579 7.5807 8.13592 6.14057 9.9131 6.14057C11.6903 6.14057 13.1304 7.5807 13.1304 9.35788C13.1304 11.1351 11.6903 12.5752 9.9131 12.5752Z" fill="white"/>
<path d="M14.8693 5.50695C15.4776 5.50695 15.9707 5.01385 15.9707 4.40558C15.9707 3.7973 15.4776 3.3042 14.8693 3.3042C14.261 3.3042 13.7679 3.7973 13.7679 4.40558C13.7679 5.01385 14.261 5.50695 14.8693 5.50695Z" fill="white"/>
</svg>
