<svg width="20" height="19" viewBox="0 0 20 19" fill="none" xmlns="http://www.w3.org/2000/svg">
<path d="M17.736 0H1.54101C1.16902 0 0.812269 0.147772 0.549234 0.410806C0.286199 0.673841 0.138428 1.03059 0.138428 1.40258V17.5976C0.138428 17.9696 0.286199 18.3263 0.549234 18.5893C0.812269 18.8524 1.16902 19.0001 1.54101 19.0001H17.736C18.108 19.0001 18.4647 18.8524 18.7278 18.5893C18.9908 18.3263 19.1386 17.9696 19.1386 17.5976V1.40258C19.1386 1.03059 18.9908 0.673841 18.7278 0.410806C18.4647 0.147772 18.108 0 17.736 0ZM5.80153 16.1857H2.94491V7.11186H5.80153V16.1857ZM4.37124 5.85442C4.0472 5.85259 3.73097 5.75482 3.46245 5.57345C3.19393 5.39207 2.98516 5.13521 2.86248 4.83529C2.7398 4.53537 2.70871 4.20583 2.77314 3.88826C2.83757 3.5707 2.99463 3.27933 3.22449 3.05093C3.45436 2.82254 3.74673 2.66736 4.0647 2.60497C4.38268 2.54258 4.71201 2.57578 5.01114 2.70038C5.31026 2.82499 5.56577 3.03541 5.74542 3.30508C5.92507 3.57476 6.02081 3.89162 6.02056 4.21566C6.02361 4.4326 5.98296 4.64794 5.90102 4.84884C5.81909 5.04974 5.69754 5.23209 5.54363 5.38501C5.38972 5.53794 5.2066 5.65831 5.00518 5.73896C4.80375 5.8196 4.58816 5.85887 4.37124 5.85442ZM16.3308 16.1937H13.4755V11.2365C13.4755 9.77452 12.854 9.32327 12.0518 9.32327C11.2047 9.32327 10.3734 9.96188 10.3734 11.2734V16.1937H7.51682V7.11846H10.2639V8.3759H10.3009C10.5766 7.81777 11.5425 6.8638 13.0163 6.8638C14.6102 6.8638 16.3321 7.80985 16.3321 10.5807L16.3308 16.1937Z" fill="white"/>
</svg>
