<svg width="190" height="94" viewBox="0 0 190 94" fill="none" xmlns="http://www.w3.org/2000/svg">
<path fill-rule="evenodd" clip-rule="evenodd" d="M32.9673 52.2446C34.9369 53.5576 35.856 55.1916 35.7831 57.4238C35.6664 61.4359 35.7685 65.4625 35.7539 69.4892C35.7539 73.0198 32.7777 75.9523 28.999 75.9669C19.7785 76.0107 10.5726 75.9815 1.35213 75.9815C1.19165 75.9815 1.03116 75.9523 0.768555 75.9231C0.768555 60.3854 0.768555 44.8623 0.768555 29.2079C1.13329 29.1933 1.5272 29.1495 1.92112 29.1495C10.8936 29.135 19.8515 29.1204 28.824 29.1204C32.5588 29.1204 35.7101 31.9945 35.7539 35.4667C35.7977 39.6831 35.7977 43.8848 35.7539 48.1012C35.7247 49.9394 34.4701 51.1503 32.9673 52.2446ZM6.86692 70.7585C12.6589 70.7585 18.305 70.7585 23.9511 70.7585C24.4471 70.7585 24.9286 70.7439 25.4246 70.6855C27.7152 70.4229 29.32 69.1682 29.4513 67.082C29.6264 64.2516 29.6264 61.4067 29.4221 58.5763C29.2616 56.3879 27.4234 55.0749 25.0891 55.0749C19.443 55.0749 13.7969 55.0749 8.15079 55.0749C7.75687 55.0749 7.36296 55.1041 6.8961 55.1332C6.86692 60.3271 6.86692 65.4625 6.86692 70.7585ZM6.86692 49.2975C7.07117 49.3413 7.18789 49.3996 7.3046 49.3996C13.3592 49.3996 19.4138 49.4142 25.483 49.3704C27.4526 49.3559 29.2325 47.9553 29.3784 46.0586C29.568 43.3888 29.6118 40.6752 29.4075 38.0053C29.247 35.8169 27.438 34.5476 25.0599 34.5476C19.4138 34.5476 13.7677 34.5476 8.10702 34.5476C7.71311 34.5476 7.31919 34.5914 6.86692 34.606C6.86692 39.5372 6.86692 44.3809 6.86692 49.2975Z" fill="white"/>
<path fill-rule="evenodd" clip-rule="evenodd" d="M82.9214 75.9085C82.9214 60.3417 82.9214 44.8477 82.9214 29.2079C83.3007 29.1787 83.6946 29.1495 84.0885 29.1495C93.0756 29.135 102.063 29.1204 111.05 29.1204C114.799 29.1204 117.965 31.9799 117.994 35.4522C118.038 39.6685 118.038 43.8702 117.994 48.0866C117.98 49.9248 116.725 51.1358 115.193 52.2591C117.527 53.6305 118.126 55.6439 118.038 58.0949C117.907 61.9173 118.023 65.7543 118.009 69.5913C117.994 73.049 115.003 75.9523 111.254 75.9669C101.975 76.0107 92.7109 75.9815 83.432 75.9815C83.3299 75.9815 83.1986 75.9523 82.9214 75.9085ZM89.0489 70.7585C89.6179 70.7585 90.0556 70.7585 90.4933 70.7585C95.4099 70.7585 100.341 70.7585 105.258 70.7585C106.031 70.7585 106.819 70.7731 107.592 70.6855C109.941 70.4375 111.56 69.1537 111.692 67.0236C111.867 64.237 111.867 61.4213 111.662 58.6347C111.502 56.3879 109.664 55.0749 107.242 55.0749C101.625 55.0749 96.0081 55.0749 90.3912 55.0749C89.9535 55.0749 89.5304 55.0749 89.0489 55.0749C89.0489 60.3417 89.0489 65.4479 89.0489 70.7585ZM89.0635 49.3704C95.4683 49.3704 101.742 49.4142 108.001 49.3413C109.795 49.3267 111.502 47.8094 111.619 46.0149C111.794 43.345 111.823 40.6314 111.633 37.9615C111.473 35.8169 109.664 34.5476 107.359 34.533C101.654 34.533 95.9497 34.533 90.2453 34.533C89.8513 34.533 89.4574 34.5768 89.0489 34.5914C89.0635 39.5664 89.0635 44.41 89.0635 49.3704Z" fill="white"/>
<path fill-rule="evenodd" clip-rule="evenodd" d="M130.001 55.2501C130.001 60.2396 130.001 65.0833 130.001 70.0729C137.807 70.0729 145.626 70.0729 153.519 70.0729C153.519 72.1008 153.519 73.9682 153.519 75.9086C143.657 75.9086 133.824 75.9086 123.917 75.9086C123.917 60.3709 123.917 44.877 123.917 29.3247C133.794 29.3247 143.628 29.3247 153.519 29.3247C153.519 31.2943 153.519 33.1763 153.519 35.2042C145.699 35.2042 137.88 35.2042 130.001 35.2042C130.001 39.9604 130.001 44.5706 130.001 49.3268C137.807 49.3268 145.626 49.3268 153.519 49.3268C153.519 51.3401 153.519 53.2221 153.519 55.2501C145.699 55.2501 137.894 55.2501 130.001 55.2501Z" fill="white"/>
<path d="M58.1921 49.3413H46.6665V55.2646H58.1921V49.3413Z" fill="white"/>
<path fill-rule="evenodd" clip-rule="evenodd" d="M41.5605 54.9583C41.5605 48.5389 41.6918 42.1342 41.5022 35.7294C41.4001 32.2572 44.9015 28.887 49.0449 28.9162C56.0478 28.96 63.0507 28.887 70.0536 28.9454C73.7739 28.9746 77.1732 32.0383 77.1587 35.3064C77.1295 48.466 77.1441 61.6402 77.1732 74.7998C77.1732 75.7482 76.8669 76.0837 75.8164 76.0108C74.4888 75.9378 73.1466 76.0399 71.8189 75.9524C71.5271 75.9378 71.177 75.5439 71.0165 75.2521C70.8852 75.0041 70.9873 74.6539 70.9873 74.3476C70.9873 62.8511 70.9873 51.3547 70.9727 39.8582C70.9727 38.3701 70.8269 36.9112 69.6013 35.7294C68.7698 34.9416 67.836 34.5185 66.6251 34.5185C61.7814 34.5331 56.9523 34.5039 52.1087 34.5331C50.037 34.5331 48.1987 36.0942 47.9799 37.9762C47.8923 38.6911 47.8777 39.4206 47.8777 40.1354C47.8777 51.5881 47.8777 63.0554 47.8777 74.5081C47.8777 75.967 47.8777 75.967 46.2291 75.9816C45.1933 75.9816 44.1283 75.8795 43.107 75.9962C41.7356 76.1567 41.5022 75.6023 41.5459 74.5226C41.6189 72.3196 41.5605 70.1166 41.5605 67.9137C41.5605 63.6098 41.5605 59.2767 41.5605 54.9583Z" fill="white"/>
<path fill-rule="evenodd" clip-rule="evenodd" d="M189.074 75.9231C179.197 75.9231 169.407 75.9231 159.501 75.9231C159.501 60.4 159.501 44.8915 159.501 29.2954C161.441 29.2954 163.353 29.2954 165.424 29.2954C165.424 42.849 165.424 56.4025 165.424 70.0874C173.39 70.0874 181.195 70.0874 189.074 70.0874C189.074 72.1299 189.074 73.9973 189.074 75.9231Z" fill="white"/>
<path fill-rule="evenodd" clip-rule="evenodd" d="M79.8432 24.7874C79.8432 23.1388 79.8432 21.7236 79.8432 20.323C79.8432 16.4131 79.8578 12.5031 79.8286 8.59315C79.8286 7.9804 79.9162 7.57189 80.5873 7.30929C86.6564 4.90204 92.6965 2.46561 98.7511 0.0437682C98.8532 0 98.9845 0.0145894 99.2763 0C99.2763 7.64484 99.2763 15.2605 99.2763 23.0366C98.8969 23.0366 98.503 23.0366 98.1091 23.0366C93.6739 23.0512 89.2388 23.0658 84.8182 23.0658C83.0237 23.0658 81.3167 23.2409 79.8432 24.7874Z" fill="white"/>
<path fill-rule="evenodd" clip-rule="evenodd" d="M118.987 26.2172C117.061 24.4081 115.018 23.4744 112.684 23.1972C111.356 23.0513 109.985 23.0513 108.643 23.0513C106.396 23.0221 104.135 23.0513 101.786 23.0513C101.786 15.3481 101.786 7.73244 101.786 0.0146484C102.121 0.073006 102.398 0.0875954 102.646 0.189721C107.796 2.24683 112.932 4.30393 118.053 6.4048C118.447 6.56528 118.928 7.07591 118.943 7.42606C119.001 13.5536 118.987 19.7103 118.987 26.2172Z" fill="white"/>
<path d="M95.731 85.2605H95.2495V87.1279H95.6434C96.0082 87.1279 96.2416 86.9675 96.2416 86.486V85.8878C96.2416 85.4502 96.0811 85.2605 95.731 85.2605Z" fill="white"/>
<path d="M100.224 85.1875C99.9035 85.1875 99.7139 85.348 99.7139 85.7857V89.0683C99.7139 89.506 99.9181 89.6664 100.224 89.6664C100.545 89.6664 100.735 89.506 100.735 89.0683V85.7857C100.735 85.348 100.545 85.1875 100.224 85.1875Z" fill="white"/>
<path d="M109.241 85.2605H108.774V87.3176H109.241C109.562 87.3176 109.722 87.1863 109.722 86.7486V85.8295C109.722 85.3918 109.547 85.2605 109.241 85.2605Z" fill="white"/>
<path d="M111.911 81.4527C111.911 81.4527 84.8328 81.4527 84.1763 81.4527C80.3977 81.8758 78.3989 77.9804 78.3989 77.9804V87.7553L83.8699 93.0075H114.829L120.562 87.4927V77.7178C118.841 81.9779 111.911 81.4527 111.911 81.4527ZM92.7257 86.4422H91.792V85.7857C91.792 85.348 91.5877 85.1875 91.2814 85.1875C90.9604 85.1875 90.7707 85.348 90.7707 85.7857V89.0683C90.7707 89.506 90.975 89.6665 91.2814 89.6665C91.6023 89.6665 91.792 89.506 91.792 89.0683V87.9449H91.3397V87.0842H92.7257V89.01C92.7257 89.9874 92.2151 90.5418 91.2376 90.5418C90.2601 90.5418 89.7495 89.9874 89.7495 89.01V85.8441C89.7495 84.8666 90.2601 84.3122 91.2376 84.3122C92.2151 84.3122 92.7257 84.8666 92.7257 85.8441V86.4422ZM96.3439 90.4689C96.2855 90.3084 96.2563 90.2209 96.2563 89.7248V88.7619C96.2563 88.193 96.0521 87.9887 95.5998 87.9887H95.2497V90.4689H94.2576V84.3851H95.7603C96.7962 84.3851 97.2338 84.8374 97.2338 85.7857V86.2672C97.2338 86.8945 97.0296 87.303 96.5773 87.4927C97.0733 87.6969 97.2338 88.1492 97.2338 88.7911V89.7248C97.2338 90.0166 97.2484 90.2355 97.336 90.4689H96.3439ZM101.727 89.01C101.727 89.9874 101.202 90.5418 100.225 90.5418C99.2472 90.5418 98.7219 89.9874 98.7219 89.01V85.8441C98.7219 84.8666 99.2472 84.3122 100.225 84.3122C101.202 84.3122 101.727 84.8666 101.727 85.8441V89.01ZM106.192 89.0246C106.192 90.002 105.681 90.5564 104.718 90.5564C103.741 90.5564 103.23 90.002 103.23 89.0246V84.3997H104.222V89.0829C104.222 89.5206 104.426 89.6811 104.733 89.6811C105.054 89.6811 105.243 89.5206 105.243 89.0829V84.3997H106.177V89.0246H106.192ZM110.714 86.6902C110.714 87.6677 110.233 88.193 109.241 88.193H108.774V90.4835H107.782V84.3997H109.241C110.233 84.3997 110.714 84.9249 110.714 85.9024V86.6902Z" fill="white"/>
</svg>
