<svg width="133" height="66" viewBox="0 0 133 66" fill="none" xmlns="http://www.w3.org/2000/svg">
<path fill-rule="evenodd" clip-rule="evenodd" d="M22.742 36.9002C24.1331 37.8276 24.7823 38.9817 24.7308 40.5583C24.6483 43.3921 24.7205 46.2361 24.7102 49.0801C24.7102 51.5738 22.608 53.645 19.9392 53.6553C13.4267 53.6862 6.92462 53.6656 0.412179 53.6656C0.29883 53.6656 0.185481 53.645 0 53.6244C0 42.6501 0 31.6862 0 20.6295C0.257612 20.6192 0.535833 20.5882 0.814054 20.5882C7.15131 20.5779 13.4783 20.5676 19.8155 20.5676C22.4535 20.5676 24.6792 22.5976 24.7102 25.0501C24.7411 28.0281 24.7411 30.9958 24.7102 33.9738C24.6896 35.2721 23.8034 36.1274 22.742 36.9002ZM4.30728 49.9766C8.39816 49.9766 12.386 49.9766 16.3738 49.9766C16.7242 49.9766 17.0642 49.9663 17.4146 49.9251C19.0324 49.7396 20.1659 48.8534 20.2586 47.3799C20.3823 45.3808 20.3823 43.3715 20.238 41.3724C20.1247 39.8267 18.8263 38.8993 17.1776 38.8993C13.1897 38.8993 9.20191 38.8993 5.21407 38.8993C4.93585 38.8993 4.65763 38.9199 4.32788 38.9405C4.30728 42.6089 4.30728 46.2361 4.30728 49.9766ZM4.30728 34.8187C4.45154 34.8496 4.53397 34.8909 4.61641 34.8909C8.89277 34.8909 13.1691 34.9012 17.4558 34.8703C18.8469 34.86 20.1041 33.8707 20.2071 32.5311C20.3411 30.6454 20.372 28.7288 20.2277 26.8431C20.1144 25.2974 18.8366 24.4009 17.157 24.4009C13.1691 24.4009 9.1813 24.4009 5.18316 24.4009C4.90494 24.4009 4.62671 24.4318 4.30728 24.4421C4.30728 27.925 4.30728 31.3461 4.30728 34.8187Z" fill="#73C1B1"/>
<path fill-rule="evenodd" clip-rule="evenodd" d="M58.0247 53.6141C58.0247 42.6192 58.0247 31.6759 58.0247 20.6295C58.2926 20.6088 58.5708 20.5882 58.849 20.5882C65.1966 20.5779 71.5441 20.5676 77.8917 20.5676C80.54 20.5676 82.776 22.5873 82.7966 25.0398C82.8276 28.0178 82.8276 30.9855 82.7966 33.9635C82.7863 35.2618 81.9002 36.1171 80.8182 36.9105C82.4669 37.8792 82.8894 39.3012 82.8276 41.0323C82.7348 43.7321 82.8173 46.4422 82.8069 49.1523C82.7966 51.5944 80.6842 53.645 78.036 53.6553C71.4823 53.6862 64.939 53.6656 58.3853 53.6656C58.3132 53.6656 58.2204 53.645 58.0247 53.6141ZM62.3525 49.9766C62.7544 49.9766 63.0636 49.9766 63.3727 49.9766C66.8453 49.9766 70.3282 49.9766 73.8008 49.9766C74.347 49.9766 74.9034 49.9869 75.4495 49.9251C77.1086 49.7499 78.2524 48.8431 78.3451 47.3387C78.4688 45.3705 78.4688 43.3818 78.3245 41.4136C78.2111 39.8267 76.9128 38.8993 75.2022 38.8993C71.235 38.8993 67.2678 38.8993 63.3006 38.8993C62.9914 38.8993 62.6926 38.8993 62.3525 38.8993C62.3525 42.6192 62.3525 46.2258 62.3525 49.9766ZM62.3628 34.8703C66.8865 34.8703 71.3174 34.9012 75.7381 34.8496C77.0055 34.8393 78.2111 33.7677 78.2936 32.5002C78.4172 30.6145 78.4378 28.6979 78.3039 26.8121C78.1905 25.2974 76.9128 24.4009 75.2847 24.3906C71.2556 24.3906 67.2266 24.3906 63.1975 24.3906C62.9193 24.3906 62.6411 24.4215 62.3525 24.4318C62.3628 27.9456 62.3628 31.3667 62.3628 34.8703Z" fill="#73C1B1"/>
<path fill-rule="evenodd" clip-rule="evenodd" d="M91.2772 39.023C91.2772 42.5471 91.2772 45.9682 91.2772 49.4923C96.7901 49.4923 102.313 49.4923 107.888 49.4923C107.888 50.9247 107.888 52.2436 107.888 53.6141C100.922 53.6141 93.977 53.6141 86.9802 53.6141C86.9802 42.6399 86.9802 31.6965 86.9802 20.7119C93.9564 20.7119 100.902 20.7119 107.888 20.7119C107.888 22.103 107.888 23.4323 107.888 24.8646C102.365 24.8646 96.8416 24.8646 91.2772 24.8646C91.2772 28.2239 91.2772 31.4801 91.2772 34.8394C96.7901 34.8394 102.313 34.8394 107.888 34.8394C107.888 36.2614 107.888 37.5907 107.888 39.023C102.365 39.023 96.8519 39.023 91.2772 39.023Z" fill="#73C1B1"/>
<path d="M40.5583 34.8496H32.4177V39.0332H40.5583V34.8496Z" fill="#73C1B1"/>
<path fill-rule="evenodd" clip-rule="evenodd" d="M28.8113 38.817C28.8113 34.283 28.9041 29.7593 28.7701 25.2357C28.698 22.7832 31.171 20.4029 34.0975 20.4235C39.0437 20.4544 43.9898 20.4029 48.936 20.4441C51.5636 20.4647 53.9646 22.6286 53.9543 24.9368C53.9337 34.2315 53.944 43.5364 53.9646 52.8311C53.9646 53.5009 53.7482 53.7379 53.0062 53.6864C52.0685 53.6348 51.1205 53.707 50.1828 53.6451C49.9767 53.6348 49.7294 53.3566 49.6161 53.1505C49.5233 52.9753 49.5955 52.728 49.5955 52.5116C49.5955 44.3917 49.5955 36.2718 49.5852 28.1518C49.5852 27.1008 49.4821 26.0703 48.6165 25.2357C48.0292 24.6792 47.3697 24.3804 46.5144 24.3804C43.0933 24.3907 39.6825 24.3701 36.2615 24.3907C34.7982 24.3907 33.4999 25.4933 33.3453 26.8226C33.2835 27.3275 33.2732 27.8427 33.2732 28.3476C33.2732 36.4366 33.2732 44.536 33.2732 52.625C33.2732 53.6554 33.2732 53.6554 32.1087 53.6657C31.3771 53.6657 30.6249 53.5936 29.9036 53.6761C28.935 53.7894 28.7701 53.3978 28.801 52.6353C28.8525 51.0793 28.8113 49.5233 28.8113 47.9674C28.8113 44.9275 28.8113 41.8671 28.8113 38.817Z" fill="#73C1B1"/>
<path fill-rule="evenodd" clip-rule="evenodd" d="M133 53.6245C126.024 53.6245 119.11 53.6245 112.113 53.6245C112.113 42.6606 112.113 31.7069 112.113 20.6914C113.483 20.6914 114.833 20.6914 116.296 20.6914C116.296 30.2643 116.296 39.8371 116.296 49.5028C121.923 49.5028 127.436 49.5028 133 49.5028C133 50.9454 133 52.2644 133 53.6245Z" fill="#73C1B1"/>
<path fill-rule="evenodd" clip-rule="evenodd" d="M55.8504 17.5073C55.8504 16.3429 55.8504 15.3434 55.8504 14.3542C55.8504 11.5925 55.8607 8.83095 55.8401 6.06934C55.8401 5.63655 55.9019 5.34803 56.3759 5.16255C60.6626 3.46231 64.9286 1.74146 69.205 0.0309135C69.2771 0 69.3699 0.0103045 69.576 0C69.576 5.39955 69.576 10.7785 69.576 16.2708C69.308 16.2708 69.0298 16.2708 68.7516 16.2708C65.619 16.2811 62.4865 16.2914 59.3642 16.2914C58.0968 16.2914 56.8911 16.415 55.8504 17.5073Z" fill="#73C1B1"/>
<path fill-rule="evenodd" clip-rule="evenodd" d="M83.4974 18.5171C82.1372 17.2394 80.6946 16.5799 79.0458 16.3841C78.1081 16.281 77.1395 16.281 76.1915 16.281C74.6046 16.2604 73.0074 16.281 71.3484 16.281C71.3484 10.8403 71.3484 5.46133 71.3484 0.0102539C71.5854 0.0514719 71.7812 0.0617763 71.9564 0.133908C75.5938 1.58684 79.221 3.03977 82.8379 4.52362C83.1161 4.63697 83.4562 4.99763 83.4665 5.24493C83.5077 9.57282 83.4974 13.9213 83.4974 18.5171Z" fill="#73C1B1"/>
<path d="M67.0717 60.2195H66.7317V61.5385H67.0099C67.2675 61.5385 67.4324 61.4251 67.4324 61.0851V60.6626C67.4324 60.3534 67.319 60.2195 67.0717 60.2195Z" fill="#73C1B1"/>
<path d="M70.2457 60.1677C70.019 60.1677 69.885 60.2811 69.885 60.5902V62.9087C69.885 63.2179 70.0293 63.3312 70.2457 63.3312C70.4724 63.3312 70.6063 63.2179 70.6063 62.9087V60.5902C70.6063 60.2811 70.4724 60.1677 70.2457 60.1677Z" fill="#73C1B1"/>
<path d="M76.6137 60.2195H76.2839V61.6724H76.6137C76.8404 61.6724 76.9537 61.5797 76.9537 61.2705V60.6214C76.9537 60.3122 76.8301 60.2195 76.6137 60.2195Z" fill="#73C1B1"/>
<path d="M78.4995 57.5298C78.4995 57.5298 59.3744 57.5298 58.9107 57.5298C56.2418 57.8286 54.8301 55.0773 54.8301 55.0773V61.9813L58.6943 65.6909H80.5604L84.61 61.7959V54.8918C83.3941 57.9008 78.4995 57.5298 78.4995 57.5298ZM64.9491 61.0539H64.2896V60.5902C64.2896 60.2811 64.1453 60.1677 63.9289 60.1677C63.7022 60.1677 63.5683 60.2811 63.5683 60.5902V62.9087C63.5683 63.2179 63.7125 63.3312 63.9289 63.3312C64.1556 63.3312 64.2896 63.2179 64.2896 62.9087V62.1153H63.9702V61.5073H64.9491V62.8675C64.9491 63.5579 64.5884 63.9495 63.898 63.9495C63.2076 63.9495 62.847 63.5579 62.847 62.8675V60.6314C62.847 59.941 63.2076 59.5495 63.898 59.5495C64.5884 59.5495 64.9491 59.941 64.9491 60.6314V61.0539ZM67.5046 63.898C67.4634 63.7846 67.4428 63.7228 67.4428 63.3724V62.6923C67.4428 62.2905 67.2985 62.1462 66.9791 62.1462H66.7318V63.898H66.0311V59.601H67.0924C67.824 59.601 68.1332 59.9204 68.1332 60.5902V60.9303C68.1332 61.3734 67.9889 61.6619 67.6695 61.7959C68.0198 61.9401 68.1332 62.2596 68.1332 62.713V63.3724C68.1332 63.5785 68.1435 63.7331 68.2053 63.898H67.5046ZM71.3069 62.8675C71.3069 63.5579 70.936 63.9495 70.2456 63.9495C69.5552 63.9495 69.1842 63.5579 69.1842 62.8675V60.6314C69.1842 59.941 69.5552 59.5495 70.2456 59.5495C70.936 59.5495 71.3069 59.941 71.3069 60.6314V62.8675ZM74.4601 62.8778C74.4601 63.5682 74.0995 63.9598 73.4194 63.9598C72.729 63.9598 72.3683 63.5682 72.3683 62.8778V59.6113H73.069V62.919C73.069 63.2282 73.2133 63.3415 73.4297 63.3415C73.6564 63.3415 73.7903 63.2282 73.7903 62.919V59.6113H74.4498V62.8778H74.4601ZM77.6545 61.2291C77.6545 61.9195 77.3145 62.2905 76.6138 62.2905H76.284V63.9083H75.5833V59.6113H76.6138C77.3145 59.6113 77.6545 59.9823 77.6545 60.6727V61.2291Z" fill="#73C1B1"/>
</svg>
