<svg width="81" height="41" viewBox="0 0 81 41" fill="none" xmlns="http://www.w3.org/2000/svg">
<path fill-rule="evenodd" clip-rule="evenodd" d="M13.8504 22.4731C14.6976 23.038 15.093 23.7408 15.0616 24.701C15.0114 26.4268 15.0553 28.1589 15.049 29.891C15.049 31.4097 13.7688 32.6711 12.1434 32.6774C8.17719 32.6962 4.21725 32.6837 0.251027 32.6837C0.181994 32.6837 0.112962 32.6711 0 32.6585C0 25.975 0 19.2977 0 12.5639C0.156892 12.5576 0.326335 12.5388 0.495778 12.5388C4.35531 12.5325 8.20857 12.5262 12.0681 12.5262C13.6747 12.5262 15.0302 13.7625 15.049 15.2561C15.0679 17.0698 15.0679 18.8772 15.049 20.6909C15.0365 21.4816 14.4968 22.0025 13.8504 22.4731ZM2.62323 30.437C5.11467 30.437 7.54335 30.437 9.97203 30.437C10.1854 30.437 10.3925 30.4307 10.6059 30.4056C11.5912 30.2926 12.2815 29.7529 12.338 28.8555C12.4133 27.638 12.4133 26.4143 12.3254 25.1968C12.2564 24.2554 11.4656 23.6906 10.4615 23.6906C8.03285 23.6906 5.60417 23.6906 3.17549 23.6906C3.00604 23.6906 2.8366 23.7032 2.63578 23.7157C2.62323 25.9499 2.62323 28.1589 2.62323 30.437ZM2.62323 21.2055C2.71109 21.2243 2.76129 21.2494 2.8115 21.2494C5.4159 21.2494 8.0203 21.2557 10.631 21.2368C11.4782 21.2306 12.2438 20.6281 12.3066 19.8123C12.3882 18.6638 12.407 17.4965 12.3191 16.3481C12.2501 15.4067 11.4719 14.8608 10.449 14.8608C8.0203 14.8608 5.59162 14.8608 3.15666 14.8608C2.98722 14.8608 2.81777 14.8796 2.62323 14.8859C2.62323 17.007 2.62323 19.0906 2.62323 21.2055Z" fill="#003150"/>
<path fill-rule="evenodd" clip-rule="evenodd" d="M35.3383 32.6523C35.3383 25.9561 35.3383 19.2914 35.3383 12.5639C35.5014 12.5513 35.6709 12.5388 35.8403 12.5388C39.7061 12.5325 43.5719 12.5262 47.4377 12.5262C49.0506 12.5262 50.4124 13.7562 50.425 15.2499C50.4438 17.0635 50.4438 18.8709 50.425 20.6846C50.4187 21.4753 49.879 21.9962 49.22 22.4794C50.2241 23.0693 50.4814 23.9354 50.4438 24.9897C50.3873 26.6339 50.4375 28.2844 50.4312 29.9349C50.425 31.4222 49.1385 32.6711 47.5256 32.6774C43.5343 32.6962 39.5492 32.6837 35.5579 32.6837C35.514 32.6837 35.4575 32.6711 35.3383 32.6523ZM37.974 30.437C38.2188 30.437 38.4071 30.437 38.5953 30.437C40.7102 30.437 42.8314 30.437 44.9463 30.437C45.2789 30.437 45.6178 30.4432 45.9504 30.4056C46.9608 30.2989 47.6574 29.7466 47.7139 28.8304C47.7892 27.6317 47.7892 26.4205 47.7013 25.2219C47.6323 24.2554 46.8416 23.6906 45.7998 23.6906C43.3837 23.6906 40.9675 23.6906 38.5514 23.6906C38.3631 23.6906 38.1811 23.6906 37.974 23.6906C37.974 25.9561 37.974 28.1526 37.974 30.437ZM37.9803 21.2368C40.7353 21.2368 43.4339 21.2557 46.1261 21.2243C46.898 21.218 47.6323 20.5653 47.6825 19.7934C47.7578 18.645 47.7704 17.4777 47.6888 16.3293C47.6197 15.4067 46.8416 14.8608 45.85 14.8545C43.3962 14.8545 40.9424 14.8545 38.4887 14.8545C38.3192 14.8545 38.1498 14.8733 37.974 14.8796C37.9803 17.0196 37.9803 19.1031 37.9803 21.2368Z" fill="#003150"/>
<path fill-rule="evenodd" clip-rule="evenodd" d="M55.5899 23.7659C55.5899 25.9122 55.5899 27.9957 55.5899 30.142C58.9473 30.142 62.3111 30.142 65.7062 30.142C65.7062 31.0143 65.7062 31.8176 65.7062 32.6523C61.4639 32.6523 57.2341 32.6523 52.9729 32.6523C52.9729 25.9687 52.9729 19.3039 52.9729 12.6141C57.2215 12.6141 61.4513 12.6141 65.7062 12.6141C65.7062 13.4613 65.7062 14.2709 65.7062 15.1432C62.3425 15.1432 58.9787 15.1432 55.5899 15.1432C55.5899 17.189 55.5899 19.1722 55.5899 21.218C58.9473 21.218 62.3111 21.218 65.7062 21.218C65.7062 22.0841 65.7062 22.8936 65.7062 23.7659C62.3425 23.7659 58.985 23.7659 55.5899 23.7659Z" fill="#003150"/>
<path d="M24.701 21.2243H19.7432V23.7722H24.701V21.2243Z" fill="#003150"/>
<path fill-rule="evenodd" clip-rule="evenodd" d="M17.5468 23.6404C17.5468 20.8791 17.6032 18.1241 17.5217 15.3691C17.4777 13.8755 18.9839 12.4258 20.7662 12.4384C23.7785 12.4572 26.7908 12.4258 29.8031 12.4509C31.4034 12.4635 32.8657 13.7814 32.8594 15.1871C32.8468 20.8478 32.8531 26.5147 32.8657 32.1753C32.8657 32.5833 32.7339 32.7276 32.282 32.6962C31.7109 32.6648 31.1336 32.7088 30.5625 32.6711C30.437 32.6648 30.2864 32.4954 30.2173 32.3699C30.1609 32.2632 30.2048 32.1126 30.2048 31.9808C30.2048 27.0356 30.2048 22.0903 30.1985 17.1451C30.1985 16.505 30.1357 15.8774 29.6086 15.3691C29.2509 15.0302 28.8492 14.8482 28.3284 14.8482C26.2448 14.8545 24.1676 14.842 22.0841 14.8545C21.1929 14.8545 20.4022 15.526 20.3081 16.3356C20.2704 16.6431 20.2641 16.9569 20.2641 17.2644C20.2641 22.1908 20.2641 27.1234 20.2641 32.0498C20.2641 32.6774 20.2641 32.6774 19.555 32.6837C19.1094 32.6837 18.6513 32.6397 18.212 32.6899C17.6221 32.759 17.5217 32.5205 17.5405 32.0561C17.5719 31.1085 17.5468 30.1609 17.5468 29.2132C17.5468 27.3619 17.5468 25.498 17.5468 23.6404Z" fill="#003150"/>
<path fill-rule="evenodd" clip-rule="evenodd" d="M81 32.6586C76.7514 32.6586 72.5404 32.6586 68.2792 32.6586C68.2792 25.9813 68.2792 19.3102 68.2792 12.6015C69.1139 12.6015 69.936 12.6015 70.8271 12.6015C70.8271 18.4316 70.8271 24.2617 70.8271 30.1483C74.2537 30.1483 77.6111 30.1483 81 30.1483C81 31.0269 81 31.8302 81 32.6586Z" fill="#003150"/>
<path fill-rule="evenodd" clip-rule="evenodd" d="M34.0141 10.6624C34.0141 9.95321 34.0141 9.34447 34.0141 8.742C34.0141 7.06012 34.0204 5.37824 34.0078 3.69637C34.0078 3.43279 34.0455 3.25707 34.3342 3.14411C36.9448 2.10862 39.543 1.06059 42.1474 0.018827C42.1913 0 42.2478 0.00627567 42.3733 0C42.3733 3.28845 42.3733 6.56435 42.3733 9.90928C42.2101 9.90928 42.0407 9.90928 41.8712 9.90928C39.9634 9.91555 38.0556 9.92183 36.1541 9.92183C35.3822 9.92183 34.6479 9.99713 34.0141 10.6624Z" fill="#003150"/>
<path fill-rule="evenodd" clip-rule="evenodd" d="M50.8517 11.2773C50.0233 10.4992 49.1447 10.0975 48.1406 9.97829C47.5695 9.91553 46.9796 9.91553 46.4023 9.91553C45.4358 9.90298 44.4631 9.91553 43.4527 9.91553C43.4527 6.60198 43.4527 3.32608 43.4527 0.0062561C43.5971 0.0313588 43.7163 0.0376344 43.823 0.0815641C46.0383 0.966433 48.2473 1.8513 50.4501 2.755C50.6195 2.82403 50.8266 3.04368 50.8329 3.19429C50.858 5.83007 50.8517 8.4784 50.8517 11.2773Z" fill="#003150"/>
<path d="M40.8483 36.675H40.6412V37.4783H40.8107C40.9675 37.4783 41.068 37.4092 41.068 37.2021V36.9448C41.068 36.7566 40.9989 36.675 40.8483 36.675Z" fill="#003150"/>
<path d="M42.7812 36.6436C42.6431 36.6436 42.5616 36.7126 42.5616 36.9009V38.3129C42.5616 38.5012 42.6494 38.5702 42.7812 38.5702C42.9193 38.5702 43.0009 38.5012 43.0009 38.3129V36.9009C43.0009 36.7126 42.9193 36.6436 42.7812 36.6436Z" fill="#003150"/>
<path d="M46.6596 36.675H46.4588V37.5598H46.6596C46.7977 37.5598 46.8667 37.5034 46.8667 37.3151V36.9197C46.8667 36.7315 46.7914 36.675 46.6596 36.675Z" fill="#003150"/>
<path d="M47.808 35.037C47.808 35.037 36.1604 35.037 35.878 35.037C34.2526 35.219 33.3928 33.5434 33.3928 33.5434V37.7481L35.7462 40.0073H49.0632L51.5295 37.6351V33.4305C50.789 35.2629 47.808 35.037 47.808 35.037ZM39.5555 37.1833H39.1539V36.9009C39.1539 36.7126 39.066 36.6436 38.9342 36.6436C38.7962 36.6436 38.7146 36.7126 38.7146 36.9009V38.3129C38.7146 38.5012 38.8025 38.5702 38.9342 38.5702C39.0723 38.5702 39.1539 38.5012 39.1539 38.3129V37.8297H38.9593V37.4594H39.5555V38.2878C39.5555 38.7083 39.3359 38.9468 38.9154 38.9468C38.4949 38.9468 38.2753 38.7083 38.2753 38.2878V36.926C38.2753 36.5055 38.4949 36.2671 38.9154 36.2671C39.3359 36.2671 39.5555 36.5055 39.5555 36.926V37.1833ZM41.1119 38.9154C41.0868 38.8463 41.0742 38.8087 41.0742 38.5953V38.1811C41.0742 37.9364 40.9864 37.8485 40.7918 37.8485H40.6412V38.9154H40.2145V36.2984H40.8609C41.3064 36.2984 41.4947 36.493 41.4947 36.9009V37.108C41.4947 37.3778 41.4068 37.5536 41.2123 37.6351C41.4257 37.723 41.4947 37.9176 41.4947 38.1937V38.5953C41.4947 38.7208 41.501 38.815 41.5386 38.9154H41.1119ZM43.4276 38.2878C43.4276 38.7083 43.2017 38.9468 42.7812 38.9468C42.3608 38.9468 42.1348 38.7083 42.1348 38.2878V36.926C42.1348 36.5055 42.3608 36.2671 42.7812 36.2671C43.2017 36.2671 43.4276 36.5055 43.4276 36.926V38.2878ZM45.348 38.2941C45.348 38.7146 45.1283 38.953 44.7141 38.953C44.2937 38.953 44.074 38.7146 44.074 38.2941V36.3047H44.5008V38.3192C44.5008 38.5075 44.5886 38.5765 44.7204 38.5765C44.8585 38.5765 44.9401 38.5075 44.9401 38.3192V36.3047H45.3417V38.2941H45.348ZM47.2934 37.29C47.2934 37.7105 47.0863 37.9364 46.6596 37.9364H46.4588V38.9217H46.032V36.3047H46.6596C47.0863 36.3047 47.2934 36.5306 47.2934 36.9511V37.29Z" fill="#003150"/>
</svg>
