<svg id="Capa_1" data-name="Capa 1" xmlns="http://www.w3.org/2000/svg" viewBox="0 0 1082.81 1287.72"><defs><style>.cls-1{fill:#fff;}</style></defs><path class="cls-1" d="M467.46,132.72,349.86,14.56A49.09,49.09,0,0,0,314.58,0H102.9A49.71,49.71,0,0,0,53.06,49.84V481.6a49.94,49.94,0,0,0,49.84,49.84H432.74a50,50,0,0,0,49.84-49.84V168c0-13.44-5.6-25.76-15.12-35.28ZM331.94,58.8l91.84,91.84H341.46a9.44,9.44,0,0,1-9.52-9.52Zm107,423.36a6.21,6.21,0,0,1-6.16,6.16H102.9a6.21,6.21,0,0,1-6.16-6.16V49.84a6.76,6.76,0,0,1,1.68-4.48,5.5,5.5,0,0,1,4.48-1.68H288.26v97.44a53.18,53.18,0,0,0,53.2,53.2h96.88V482.16Z"/><path class="cls-1" d="M286.14,259.84a133.23,133.23,0,0,1-17.36-24.64c12.32-42,14-71.12,3.92-85.68-5-7.84-13.44-11.76-23-11.76-11.2,0-20.16,5-24.08,15.12-8.4,19.6,4.48,55.44,19.6,84.56A449.93,449.93,0,0,1,229,282.24a223.51,223.51,0,0,1-12.32,26.32c-33.6,12.88-70.55,32.48-75,56-1.68,9,1.12,17.36,9,23.52a22.08,22.08,0,0,0,15.12,5.6,28.11,28.11,0,0,0,6.72-1.12c20.72-5,42.56-35.84,59.36-66.08,9.51-3.36,20.71-7.28,32.48-10.64,14-3.92,26.87-7.28,38.07-9.52,20.72,16.8,39.2,25.76,54.88,25.76,11.2.56,21.28-3.92,29.12-12.32,12.32-12.32,7.28-23.52,5.6-26.88-9-15.12-39.19-18.48-83.44-10.07-6.72-6.73-14.56-14.57-22.4-23ZM167.42,371.28c-1.68.56-2.24,0-3.93-2.8,1.13-5.6,11.77-16.24,34.72-27.44-11.75,16.8-23,28.56-30.79,30.24Zm77.84-209.44c.56-1.12.56-1.68,3.92-1.68s4.48,1.12,5,2.24c3.92,5.6,3.92,20.16-.56,43.12-7.28-19-11.76-36.4-8.4-43.68ZM258.7,294.56c-3.92,1.12-8.4,2.24-12.88,3.92,1.12-2.8,2.24-5.6,3.36-7.84,3.92-10.07,7.84-19.6,10.64-28.56A149.25,149.25,0,0,0,269.9,275c4.48,4.48,9,9,12.88,13.44-7.28,1.68-15.68,3.92-24.08,6.16Zm113.12,9.52c-2.8,5-7.28,5.6-13.44,5.6-6.72,0-15.68-3.36-25.2-9,27.44-2.8,41.44-1.68,38.64,3.36Z"/></svg>