<svg width="24" height="34" viewBox="0 0 24 34" fill="none" xmlns="http://www.w3.org/2000/svg">
<path fill-rule="evenodd" clip-rule="evenodd" d="M3.96521 1.3076C3.55154 0.731731 2.88157 0.731731 2.46765 1.30795L0.497599 4.05046L0.430474 4.15421L0.360203 4.28923C0.319864 4.37416 0.29137 4.45081 0.267709 4.53062C0.160711 4.89041 0.160711 5.29662 0.26795 5.65722C0.32142 5.83758 0.39989 6.00199 0.499725 6.13951L2.46765 8.87908L2.5866 9.01965L2.71687 9.12975C2.88827 9.25759 3.05135 9.31133 3.21655 9.31133C3.49532 9.31133 3.76514 9.15864 3.96596 8.87838L4.06072 8.72759L4.13825 8.56435C4.36796 8.00222 4.31042 7.27393 3.96521 6.79396L3.80247 6.56683H20.3645L20.2024 6.79431L20.1013 6.96018L20.0257 7.13912C19.8035 7.74435 19.8772 8.42696 20.2027 8.87943C20.4027 9.15864 20.6726 9.31133 20.9513 9.31133C21.2301 9.31133 21.4999 9.15864 21.7007 8.87838L23.6703 6.13657L23.7374 6.03281L23.8077 5.8978C23.848 5.81287 23.8765 5.73622 23.9002 5.65641C24.0071 5.29679 24.0071 4.89167 23.9002 4.53083C23.8465 4.34944 23.768 4.18503 23.6682 4.04752L21.7002 1.30795L21.5808 1.16697L21.5347 1.11969L21.4176 1.02627C21.0176 0.75262 20.5276 0.85527 20.2024 1.30795L20.1075 1.4589L20.0299 1.62227C19.7999 2.18481 19.8575 2.9131 20.2027 3.39307L20.3656 3.61878H3.80133L3.9655 3.39266L4.06657 3.22685L4.14218 3.04791C4.36443 2.44268 4.29064 1.76007 3.96521 1.3076ZM8.5212 9.20243C8.163 9.01138 7.75088 9.1037 7.45235 9.46217L0.556831 17.6901L0.447117 17.8442L0.361724 18.0147C0.106321 18.595 0.142443 19.2847 0.443353 19.7704L0.535558 19.9034L0.636748 20.0168C1.02252 20.3966 1.56084 20.3778 1.93655 19.9263L2.15692 19.6619V31.0503L1.24569 31.051L1.1066 31.0652L0.972583 31.1088C0.495977 31.3031 0.186523 31.8689 0.186523 32.5255C0.186523 33.3402 0.660306 34 1.24569 34H15.0394L15.1785 33.9858L15.3125 33.9422C15.7891 33.7478 16.0986 33.1819 16.0986 32.5255L16.0914 32.3534L16.0706 32.1872C15.9609 31.5356 15.5412 31.051 15.0394 31.051L14.1277 31.0503V19.6635L14.3506 19.9288L14.4631 20.0445L14.5844 20.1353C14.7431 20.2405 14.8905 20.2841 15.0394 20.2841C15.3466 20.2841 15.642 20.0989 15.8452 19.7655C16.2247 19.1514 16.1734 18.2192 15.7281 17.6894L8.83188 9.46056L8.70297 9.33085L8.65268 9.2874L8.5212 9.20243ZM21.2239 11.8992C21.0006 11.8161 20.7621 11.8368 20.5461 11.9611C20.4156 12.0367 20.2983 12.1454 20.2001 12.2828L18.2311 15.0238L18.13 15.1897L18.0544 15.3686C17.8321 15.9739 17.9059 16.6565 18.2314 17.1089L18.3398 17.2409L18.4572 17.3489C18.8612 17.6688 19.384 17.5888 19.7289 17.1086L19.8917 16.881V28.9666L19.7294 28.7397L19.61 28.5987L19.4815 28.4936C19.0468 28.1844 18.5568 28.287 18.2316 28.7397C17.8176 29.3153 17.8176 30.2489 18.2318 30.8248L20.2016 33.567L20.2759 33.6602L20.3728 33.7579C20.4336 33.814 20.4882 33.8534 20.545 33.8863C20.6741 33.9611 20.812 33.9999 20.951 33.9999C21.0901 33.9999 21.228 33.9611 21.3567 33.8865C21.4869 33.811 21.6049 33.7021 21.7036 33.5626L23.6705 30.8245L23.7716 30.6586L23.8472 30.4797C24.0694 29.8744 23.9956 29.1918 23.6702 28.7394L23.5618 28.6074L23.4444 28.4994C23.0403 28.1795 22.5176 28.2595 22.1727 28.7397L22.0094 28.9666V16.881L22.1727 17.1086L22.2916 17.2492L22.4219 17.3592C22.5933 17.4871 22.7564 17.5408 22.9216 17.5408C23.2003 17.5408 23.4702 17.3881 23.671 17.1079C24.0845 16.533 24.0845 15.5994 23.6702 15.0235L21.7004 12.2813L21.626 12.188L21.5597 12.1194C21.5174 12.078 21.4785 12.0448 21.4406 12.0168L21.3557 11.9615L21.2239 11.8992ZM9.05383 25.7692H7.23073V31.0502H9.05383V25.7692ZM4.27464 17.1367L8.14292 12.5214L12.0089 17.1351V31.0504H11.1716L11.1723 24.296L11.1621 24.1024L11.1308 23.9158C10.9912 23.2523 10.5848 22.8216 10.1131 22.8216H6.17204L6.03295 22.8357L5.89893 22.8793C5.42233 23.0736 5.11287 23.6394 5.11287 24.296L5.11198 31.0504H4.27464V17.1367ZM10.1131 17.3351C10.6985 17.3351 11.1722 17.9946 11.1722 18.8096C11.1722 19.466 10.8628 20.0319 10.3862 20.2263L10.2522 20.2699L10.1131 20.2841H6.172C5.58662 20.2841 5.11284 19.6243 5.11284 18.8096C5.11284 18.153 5.42229 17.5872 5.8989 17.3929L6.03292 17.3493L6.172 17.3351H10.1131Z" fill="#1EA0D4"/>
</svg>
