<svg width="28" height="19" viewBox="0 0 28 19" fill="none" xmlns="http://www.w3.org/2000/svg">
<path d="M26.6145 2.93077C26.306 1.78491 25.4025 0.881436 24.2567 0.572933C22.1632 0 13.7896 0 13.7896 0C13.7896 0 5.41597 0 3.32256 0.550897C2.19873 0.8594 1.27322 1.78491 0.964716 2.93077C0.413818 5.02418 0.413818 9.36526 0.413818 9.36526C0.413818 9.36526 0.413818 13.7284 0.964716 15.7997C1.27322 16.9456 2.17669 17.8491 3.32256 18.1576C5.438 18.7305 13.7896 18.7305 13.7896 18.7305C13.7896 18.7305 22.1632 18.7305 24.2567 18.1796C25.4025 17.8711 26.306 16.9676 26.6145 15.8218C27.1654 13.7284 27.1654 9.38729 27.1654 9.38729C27.1654 9.38729 27.1874 5.02418 26.6145 2.93077Z" fill="white"/>
<path d="M11.1233 13.3756L18.0866 9.36503L11.1233 5.35449V13.3756Z" fill="#003150"/>
</svg>
